# xmcd
#
# Track frame offsets:
#	150
#	20781
#	38308
#	59925
#	74548
#	88891
#	106004
#	124203
#	142816
#	164806
#	186803
#	215974
#	238515
#	256980
#
# Disc length: 3724 seconds
#
# Revision: 1
# Processed by: cddbd v1.5.2PL0 Copyright (c) Steve Scherf et al.
# Submitted via: EZCDAudioConverter 8.0.2.1
#
DISCID=d50e8a0e
DTITLE=群星 - 滚石红人堂Ⅰ CD4 - 一人一首成名曲④
DYEAR=2003
DGENRE=
TTITLE0=阿牛 - 对面的女孩看过来
TTITLE1=周华健 - 花心
TTITLE2=赵传 - 我终于失去你
TTITLE3=李宗盛 - 寂寞难耐
TTITLE4=陈淑桦 - 滚滚红尘
TTITLE5=齐豫 - 走在雨中
TTITLE6=汪佩蓉 - 请你cha cha
TTITLE7=张智霖 - 有没有
TTITLE8=李心洁 - 同一个星空下
TTITLE9=巫奇 - 你怎么没看见
TTITLE10=李雨寰 - 不要爱我
TTITLE11=梁静茹 - 闪亮的星
TTITLE12=苏慧伦 - 我不是一个人住
TTITLE13=张国荣 - 怪你过分美丽
EXTD=
EXTT0=
EXTT1=
EXTT2=
EXTT3=
EXTT4=
EXTT5=
EXTT6=
EXTT7=
EXTT8=
EXTT9=
EXTT10=
EXTT11=
EXTT12=
EXTT13=
PLAYORDER=
